<mxfile host="app.diagrams.net" modified="2023-07-27T21:53:52.437Z" agent="Mozilla/5.0 (Windows NT 10.0; Win64; x64) AppleWebKit/537.36 (KHTML, like Gecko) Chrome/114.0.0.0 Safari/537.36" etag="wAAt2_MxCuSMCSf2WKlS" version="21.6.5" type="github">
  <diagram id="prtHgNgQTEPvFCAcTncT" name="Page-1">
    <mxGraphModel dx="1050" dy="549" grid="1" gridSize="10" guides="1" tooltips="1" connect="1" arrows="1" fold="1" page="1" pageScale="1" pageWidth="827" pageHeight="1169" math="0" shadow="0">
      <root>
        <mxCell id="0" />
        <mxCell id="1" parent="0" />
        <mxCell id="LSAYDNUkGt-y5qDEpnQE-30" style="edgeStyle=orthogonalEdgeStyle;rounded=0;orthogonalLoop=1;jettySize=auto;html=1;exitX=0;exitY=0;exitDx=0;exitDy=0;entryX=0;entryY=0;entryDx=0;entryDy=0;" edge="1" parent="1" source="dNxyNK7c78bLwvsdeMH5-11" target="dNxyNK7c78bLwvsdeMH5-11">
          <mxGeometry relative="1" as="geometry">
            <mxPoint x="10" y="110" as="targetPoint" />
          </mxGeometry>
        </mxCell>
        <mxCell id="dNxyNK7c78bLwvsdeMH5-11" value="Arquitetura com duas Caches" style="swimlane;html=1;startSize=20;horizontal=1;containerType=tree;glass=0;fillColor=#d5e8d4;strokeColor=#82b366;" parent="1" vertex="1">
          <mxGeometry x="20" y="200" width="970" height="290" as="geometry">
            <mxRectangle x="10" y="200" width="210" height="30" as="alternateBounds" />
          </mxGeometry>
        </mxCell>
        <mxCell id="LSAYDNUkGt-y5qDEpnQE-1" value="Registradores CPU" style="whiteSpace=wrap;html=1;aspect=fixed;fillColor=#bac8d3;strokeColor=#23445d;fontStyle=1;" vertex="1" parent="dNxyNK7c78bLwvsdeMH5-11">
          <mxGeometry x="60" y="180" width="80" height="80" as="geometry" />
        </mxCell>
        <mxCell id="LSAYDNUkGt-y5qDEpnQE-8" value="" style="curved=1;endArrow=classic;html=1;rounded=0;" edge="1" parent="dNxyNK7c78bLwvsdeMH5-11">
          <mxGeometry width="50" height="50" relative="1" as="geometry">
            <mxPoint x="191" y="240" as="sourcePoint" />
            <mxPoint x="271" y="240" as="targetPoint" />
            <Array as="points">
              <mxPoint x="140" y="239.67000000000002" />
              <mxPoint x="200" y="240" />
              <mxPoint x="180" y="240" />
              <mxPoint x="171" y="240" />
              <mxPoint x="160" y="239.67000000000002" />
            </Array>
          </mxGeometry>
        </mxCell>
        <mxCell id="LSAYDNUkGt-y5qDEpnQE-10" value="Cache L2" style="rounded=0;whiteSpace=wrap;html=1;fillColor=#bac8d3;strokeColor=#23445d;fontStyle=1" vertex="1" parent="dNxyNK7c78bLwvsdeMH5-11">
          <mxGeometry x="470" y="200" width="90" height="60" as="geometry" />
        </mxCell>
        <mxCell id="LSAYDNUkGt-y5qDEpnQE-11" value="" style="curved=1;endArrow=classic;html=1;rounded=0;" edge="1" parent="dNxyNK7c78bLwvsdeMH5-11">
          <mxGeometry width="50" height="50" relative="1" as="geometry">
            <mxPoint x="380" y="240" as="sourcePoint" />
            <mxPoint x="460" y="240" as="targetPoint" />
            <Array as="points">
              <mxPoint x="370" y="239.67" />
              <mxPoint x="390" y="239.67" />
              <mxPoint x="380" y="239.67" />
              <mxPoint x="460" y="240" />
              <mxPoint x="410" y="240" />
            </Array>
          </mxGeometry>
        </mxCell>
        <mxCell id="LSAYDNUkGt-y5qDEpnQE-12" value="Memória Principal (DDRAM)" style="rounded=0;whiteSpace=wrap;html=1;fillColor=#bac8d3;strokeColor=#23445d;fontStyle=1" vertex="1" parent="dNxyNK7c78bLwvsdeMH5-11">
          <mxGeometry x="684" y="130" width="150" height="130" as="geometry" />
        </mxCell>
        <mxCell id="LSAYDNUkGt-y5qDEpnQE-14" value="" style="curved=1;endArrow=classic;html=1;rounded=0;" edge="1" parent="dNxyNK7c78bLwvsdeMH5-11">
          <mxGeometry width="50" height="50" relative="1" as="geometry">
            <mxPoint x="570" y="239.99999999999997" as="sourcePoint" />
            <mxPoint x="670" y="240.33" as="targetPoint" />
            <Array as="points">
              <mxPoint x="590" y="239.99999999999997" />
              <mxPoint x="640" y="240.33" />
              <mxPoint x="610" y="239.99999999999997" />
              <mxPoint x="600" y="239.99999999999997" />
              <mxPoint x="660" y="240.33" />
              <mxPoint x="630" y="239.99999999999997" />
              <mxPoint x="650" y="239.99999999999997" />
            </Array>
          </mxGeometry>
        </mxCell>
        <mxCell id="LSAYDNUkGt-y5qDEpnQE-9" value="Cache L1" style="rounded=0;whiteSpace=wrap;html=1;fillColor=#bac8d3;strokeColor=#23445d;fontStyle=1" vertex="1" parent="dNxyNK7c78bLwvsdeMH5-11">
          <mxGeometry x="280" y="200" width="90" height="60" as="geometry" />
        </mxCell>
        <mxCell id="LSAYDNUkGt-y5qDEpnQE-29" value="Razão de Falha L1 =25%&lt;br style=&quot;font-size: 14px;&quot;&gt;Razão de Falha L2 =20%" style="text;html=1;align=center;verticalAlign=middle;resizable=0;points=[];autosize=1;strokeColor=none;fillColor=none;fontFamily=Helvetica;fontStyle=1;fontSize=14;" vertex="1" parent="dNxyNK7c78bLwvsdeMH5-11">
          <mxGeometry x="15" y="28" width="190" height="50" as="geometry" />
        </mxCell>
        <mxCell id="LSAYDNUkGt-y5qDEpnQE-33" value="&lt;b&gt;Razão de Acesso: 100% = 1,0&lt;/b&gt;" style="whiteSpace=wrap;html=1;rounded=1;arcSize=50;align=center;verticalAlign=middle;strokeWidth=1;autosize=1;spacing=4;treeFolding=1;treeMoving=1;newEdgeStyle={&quot;edgeStyle&quot;:&quot;entityRelationEdgeStyle&quot;,&quot;startArrow&quot;:&quot;none&quot;,&quot;endArrow&quot;:&quot;none&quot;,&quot;segment&quot;:10,&quot;curved&quot;:1,&quot;sourcePerimeterSpacing&quot;:0,&quot;targetPerimeterSpacing&quot;:0};fillColor=#b0e3e6;strokeColor=#0e8088;" vertex="1" parent="dNxyNK7c78bLwvsdeMH5-11">
          <mxGeometry x="10" y="114" width="110" height="30" as="geometry" />
        </mxCell>
        <mxCell id="LSAYDNUkGt-y5qDEpnQE-35" value="&lt;b&gt;Razão de Falha: 25% = 0,25&lt;/b&gt;" style="whiteSpace=wrap;html=1;rounded=1;arcSize=50;align=center;verticalAlign=middle;strokeWidth=1;autosize=1;spacing=4;treeFolding=1;treeMoving=1;newEdgeStyle={&quot;edgeStyle&quot;:&quot;entityRelationEdgeStyle&quot;,&quot;startArrow&quot;:&quot;none&quot;,&quot;endArrow&quot;:&quot;none&quot;,&quot;segment&quot;:10,&quot;curved&quot;:1,&quot;sourcePerimeterSpacing&quot;:0,&quot;targetPerimeterSpacing&quot;:0};fillColor=#f8cecc;strokeColor=#b85450;" vertex="1" parent="dNxyNK7c78bLwvsdeMH5-11">
          <mxGeometry x="140" y="114" width="110" height="30" as="geometry" />
        </mxCell>
        <mxCell id="LSAYDNUkGt-y5qDEpnQE-48" value="&lt;b&gt;Razão de Acesso: 1,0 x 0,25 = 0,25&lt;/b&gt;" style="whiteSpace=wrap;html=1;rounded=1;arcSize=50;align=center;verticalAlign=middle;strokeWidth=1;autosize=1;spacing=4;treeFolding=1;treeMoving=1;newEdgeStyle={&quot;edgeStyle&quot;:&quot;entityRelationEdgeStyle&quot;,&quot;startArrow&quot;:&quot;none&quot;,&quot;endArrow&quot;:&quot;none&quot;,&quot;segment&quot;:10,&quot;curved&quot;:1,&quot;sourcePerimeterSpacing&quot;:0,&quot;targetPerimeterSpacing&quot;:0};fillColor=#b0e3e6;strokeColor=#0e8088;" vertex="1" parent="dNxyNK7c78bLwvsdeMH5-11">
          <mxGeometry x="265" y="114" width="120" height="30" as="geometry" />
        </mxCell>
        <mxCell id="LSAYDNUkGt-y5qDEpnQE-62" value="&lt;b&gt;Razão de Falha: 20% = 0,2&lt;/b&gt;" style="whiteSpace=wrap;html=1;rounded=1;arcSize=50;align=center;verticalAlign=middle;strokeWidth=1;autosize=1;spacing=4;treeFolding=1;treeMoving=1;newEdgeStyle={&quot;edgeStyle&quot;:&quot;entityRelationEdgeStyle&quot;,&quot;startArrow&quot;:&quot;none&quot;,&quot;endArrow&quot;:&quot;none&quot;,&quot;segment&quot;:10,&quot;curved&quot;:1,&quot;sourcePerimeterSpacing&quot;:0,&quot;targetPerimeterSpacing&quot;:0};fillColor=#f8cecc;strokeColor=#b85450;" vertex="1" parent="dNxyNK7c78bLwvsdeMH5-11">
          <mxGeometry x="400" y="114" width="120" height="30" as="geometry" />
        </mxCell>
        <mxCell id="LSAYDNUkGt-y5qDEpnQE-63" value="&lt;b&gt;Razão de Acesso: 0,25 x 0,2 = 0,05&lt;/b&gt;" style="whiteSpace=wrap;html=1;rounded=1;arcSize=50;align=center;verticalAlign=middle;strokeWidth=1;autosize=1;spacing=4;treeFolding=1;treeMoving=1;newEdgeStyle={&quot;edgeStyle&quot;:&quot;entityRelationEdgeStyle&quot;,&quot;startArrow&quot;:&quot;none&quot;,&quot;endArrow&quot;:&quot;none&quot;,&quot;segment&quot;:10,&quot;curved&quot;:1,&quot;sourcePerimeterSpacing&quot;:0,&quot;targetPerimeterSpacing&quot;:0};fillColor=#b0e3e6;strokeColor=#0e8088;" vertex="1" parent="dNxyNK7c78bLwvsdeMH5-11">
          <mxGeometry x="540" y="114" width="130" height="30" as="geometry" />
        </mxCell>
        <mxCell id="LSAYDNUkGt-y5qDEpnQE-17" value="" style="endArrow=classic;html=1;rounded=0;" edge="1" parent="1">
          <mxGeometry relative="1" as="geometry">
            <mxPoint x="160" y="500" as="sourcePoint" />
            <mxPoint x="320" y="500" as="targetPoint" />
          </mxGeometry>
        </mxCell>
        <mxCell id="LSAYDNUkGt-y5qDEpnQE-19" value="15ns" style="edgeLabel;html=1;align=center;verticalAlign=middle;resizable=0;points=[];" vertex="1" connectable="0" parent="LSAYDNUkGt-y5qDEpnQE-17">
          <mxGeometry x="0.0187" y="-2" relative="1" as="geometry">
            <mxPoint as="offset" />
          </mxGeometry>
        </mxCell>
        <mxCell id="LSAYDNUkGt-y5qDEpnQE-21" value="" style="endArrow=classic;html=1;rounded=0;" edge="1" parent="1">
          <mxGeometry relative="1" as="geometry">
            <mxPoint x="160" y="530" as="sourcePoint" />
            <mxPoint x="520" y="530" as="targetPoint" />
          </mxGeometry>
        </mxCell>
        <mxCell id="LSAYDNUkGt-y5qDEpnQE-22" value="40ns" style="edgeLabel;html=1;align=center;verticalAlign=middle;resizable=0;points=[];" vertex="1" connectable="0" parent="LSAYDNUkGt-y5qDEpnQE-21">
          <mxGeometry x="0.0187" y="-2" relative="1" as="geometry">
            <mxPoint as="offset" />
          </mxGeometry>
        </mxCell>
        <mxCell id="LSAYDNUkGt-y5qDEpnQE-24" value="" style="endArrow=classic;html=1;rounded=0;" edge="1" parent="1">
          <mxGeometry relative="1" as="geometry">
            <mxPoint x="160" y="560" as="sourcePoint" />
            <mxPoint x="720" y="560" as="targetPoint" />
          </mxGeometry>
        </mxCell>
        <mxCell id="LSAYDNUkGt-y5qDEpnQE-25" value="200ns" style="edgeLabel;html=1;align=center;verticalAlign=middle;resizable=0;points=[];" vertex="1" connectable="0" parent="LSAYDNUkGt-y5qDEpnQE-24">
          <mxGeometry x="0.0187" y="-2" relative="1" as="geometry">
            <mxPoint x="-5" as="offset" />
          </mxGeometry>
        </mxCell>
        <mxCell id="LSAYDNUkGt-y5qDEpnQE-64" value="&lt;b style=&quot;font-size: 14px;&quot;&gt;Tempo de Acesso Médio =&amp;nbsp;&lt;/b&gt;" style="text;html=1;align=center;verticalAlign=middle;resizable=0;points=[];autosize=1;strokeColor=none;fillColor=none;fontSize=14;" vertex="1" parent="1">
          <mxGeometry x="50" y="690" width="200" height="30" as="geometry" />
        </mxCell>
        <mxCell id="LSAYDNUkGt-y5qDEpnQE-66" value="&lt;span&gt;&lt;font style=&quot;font-size: 13px;&quot;&gt;&lt;b&gt;15 ns + 10 ns + 10 ns = 35 ns&lt;/b&gt;&lt;/font&gt;&lt;/span&gt;" style="text;html=1;align=center;verticalAlign=middle;resizable=0;points=[];autosize=1;strokeColor=none;fillColor=none;fontStyle=0" vertex="1" parent="1">
          <mxGeometry x="255" y="690" width="200" height="30" as="geometry" />
        </mxCell>
        <mxCell id="LSAYDNUkGt-y5qDEpnQE-67" value="Tempo de Acesso Médio =" style="text;html=1;align=center;verticalAlign=middle;resizable=0;points=[];autosize=1;strokeColor=none;fillColor=none;fontStyle=1;fontSize=14;" vertex="1" parent="1">
          <mxGeometry x="35" y="610" width="200" height="30" as="geometry" />
        </mxCell>
        <mxCell id="LSAYDNUkGt-y5qDEpnQE-68" value="&lt;b&gt;&lt;font style=&quot;font-size: 13px;&quot;&gt;15 ns (1,0) + 40 ns (0,25) + 200 ns (0,05) .&lt;/font&gt;&lt;/b&gt;" style="text;html=1;align=center;verticalAlign=middle;resizable=0;points=[];autosize=1;strokeColor=none;fillColor=none;" vertex="1" parent="1">
          <mxGeometry x="245" y="610" width="270" height="30" as="geometry" />
        </mxCell>
      </root>
    </mxGraphModel>
  </diagram>
</mxfile>
